<?xml version="1.0" standalone="no"?>
<!DOCTYPE svg PUBLIC "-//W3C//DTD SVG 20010904//EN"
 "http://www.w3.org/TR/2001/REC-SVG-20010904/DTD/svg10.dtd">
<svg version="1.0" xmlns="http://www.w3.org/2000/svg"
 width="1024.000000pt" height="1024.000000pt" viewBox="0 0 1024.000000 1024.000000"
 preserveAspectRatio="xMidYMid meet">
<metadata>
Created by potrace 1.14, written by Peter Selinger 2001-2017
</metadata>
<g transform="translate(0.000000,1024.000000) scale(0.100000,-0.100000)"
fill="#000000" stroke="none">
<path d="M0 5120 l0 -5120 5120 0 5120 0 0 5120 0 5120 -5120 0 -5120 0 0
-5120z m5910 3659 c91 -10 179 -23 195 -29 17 -5 100 -27 185 -49 315 -79 558
-185 849 -369 171 -109 409 -288 410 -309 1 -6 -29 -17 -70 -24 -62 -11 -100
-9 -337 15 -147 15 -280 31 -297 36 -16 4 -100 16 -185 25 -85 10 -182 23
-216 31 -69 15 -193 79 -594 306 -265 150 -292 167 -324 196 -29 28 -106 135
-106 148 0 4 10 18 22 32 23 23 24 24 163 17 77 -4 214 -15 305 -26z m-577
-434 c24 -8 97 -43 163 -78 112 -60 153 -83 329 -184 39 -22 126 -71 195 -108
140 -75 163 -93 192 -150 18 -35 20 -50 14 -135 -4 -52 -11 -160 -16 -240 -20
-334 -40 -483 -74 -548 -44 -84 -174 -158 -432 -246 -38 -13 -152 -57 -254
-98 -198 -81 -249 -97 -377 -123 -79 -15 -85 -15 -170 5 -111 26 -217 78 -360
174 -61 41 -181 114 -265 162 -281 159 -313 196 -310 363 0 53 10 161 22 241
12 80 25 210 29 290 7 127 11 152 35 201 29 62 96 131 166 171 56 32 629 224
875 294 95 26 178 30 238 9z m-1873 -418 c41 -9 116 -21 165 -28 99 -13 127
-23 120 -42 -3 -6 -23 -151 -45 -322 -75 -579 -75 -578 -167 -685 -21 -25
-149 -171 -283 -326 -135 -155 -300 -346 -367 -426 -133 -158 -166 -184 -230
-172 -63 11 -328 123 -367 156 -39 32 -66 84 -66 126 0 38 73 281 129 429 94
248 262 565 409 773 90 126 280 356 343 414 35 33 84 68 109 79 53 24 139 46
160 42 8 -2 49 -10 90 -18z m4446 -179 c300 -314 561 -743 700 -1152 19 -55
34 -101 34 -103 0 -7 -131 54 -175 82 -79 50 -129 113 -198 252 -91 180 -134
263 -202 383 -258 463 -317 590 -284 611 29 18 48 7 125 -73z m-1513 -1271
c33 -21 131 -94 219 -163 88 -69 192 -150 232 -180 297 -228 426 -351 426
-407 0 -27 -46 -321 -70 -447 -11 -58 -36 -199 -55 -315 -74 -446 -88 -505
-128 -542 -19 -19 -109 -66 -222 -118 -104 -47 -218 -100 -253 -116 -35 -17
-100 -46 -145 -66 -45 -19 -116 -50 -157 -68 -221 -96 -296 -125 -324 -125
-54 1 -113 36 -269 162 -84 67 -197 158 -252 202 -232 187 -466 389 -479 414
-8 15 -17 43 -21 62 -6 35 38 425 56 490 5 19 27 163 49 320 61 432 65 453 94
497 15 22 39 49 55 61 16 12 134 57 263 101 128 44 296 103 373 131 77 28 187
66 245 85 58 19 114 39 125 44 39 19 51 20 115 18 56 -2 73 -8 123 -40z m1953
-182 c155 -69 404 -270 423 -343 29 -110 46 -465 32 -679 -12 -177 -42 -411
-61 -466 -6 -18 -21 -79 -35 -137 -14 -58 -48 -172 -76 -253 -46 -132 -58
-155 -102 -203 -36 -39 -74 -67 -136 -98 -47 -24 -188 -96 -313 -160 -125 -64
-229 -116 -231 -116 -8 0 -304 333 -365 410 -101 128 -124 197 -103 315 6 33
29 175 51 315 22 140 44 273 50 295 5 22 26 132 46 245 46 260 70 317 181 432
76 78 298 282 396 363 142 118 151 121 243 80z m-4417 -474 c13 -23 17 -19
-654 -636 -255 -234 -466 -430 -985 -910 -178 -165 -328 -304 -334 -310 -6 -5
-56 -50 -111 -99 l-100 -89 100 99 c55 55 138 136 185 180 112 104 345 326
845 800 226 215 543 516 705 670 162 154 301 288 309 297 18 22 28 21 40 -2z
m-1729 -449 c0 -8 -579 -545 -820 -761 -100 -90 -95 -84 40 47 403 389 756
721 768 721 6 1 12 -3 12 -7z m1665 -562 c3 -11 3 -24 0 -30 -6 -10 -270 -250
-854 -779 -242 -218 -310 -280 -606 -551 -104 -96 -235 -215 -290 -264 -55
-50 -122 -112 -150 -137 -131 -121 -220 -197 -225 -193 -3 3 4 12 14 20 11 8
56 49 100 92 74 71 262 247 901 841 121 113 285 266 365 341 80 75 248 233
375 351 126 117 257 240 290 271 33 32 63 58 67 58 4 0 9 -9 13 -20z m201
-797 c7 -10 14 -23 14 -29 0 -6 -107 -110 -237 -230 -131 -120 -274 -253 -318
-294 -44 -41 -156 -145 -250 -230 -93 -85 -203 -187 -244 -226 -42 -39 -100
-93 -130 -120 -30 -27 -66 -60 -80 -74 -52 -48 -312 -289 -510 -470 -57 -52
-118 -108 -135 -125 -30 -29 -677 -627 -896 -828 -58 -53 -109 -97 -115 -97
-5 0 17 25 50 56 33 31 103 97 155 147 53 51 134 128 180 171 47 44 130 122
185 175 151 145 284 270 455 431 85 80 166 156 180 170 14 14 160 154 325 310
165 156 390 370 500 474 110 105 240 229 290 276 49 46 137 130 195 185 201
195 362 345 367 345 3 0 12 -8 19 -17z m2984 -184 c0 -9 -111 -119 -247 -244
-137 -126 -257 -238 -269 -249 -33 -33 -229 -215 -599 -556 -187 -172 -371
-343 -410 -380 -38 -36 -97 -91 -130 -121 -170 -156 -487 -450 -620 -574 -318
-298 -535 -496 -535 -488 0 5 66 72 147 149 80 76 153 146 162 155 9 8 151
143 316 299 165 156 336 318 380 361 44 42 96 91 115 109 19 18 87 83 150 144
64 61 154 147 200 191 124 116 280 264 405 385 61 59 238 228 395 377 157 148
337 320 400 381 101 97 117 109 128 94 6 -9 12 -23 12 -33z m-2164 -116 c7
-10 14 -23 14 -30 0 -6 -640 -602 -1422 -1324 -1672 -1542 -1493 -1378 -1482
-1358 5 8 104 105 219 214 116 109 248 235 295 280 47 45 386 367 754 716 368
349 879 833 1135 1076 256 243 468 443 470 443 2 0 10 -8 17 -17z m3358 -50
c-90 -204 -352 -509 -669 -778 -74 -63 -115 -93 -220 -155 -38 -23 -39 -23
-25 -3 8 11 35 49 59 84 25 35 90 124 145 198 56 73 114 152 130 175 134 192
280 355 368 410 70 43 215 122 230 125 4 0 -4 -25 -18 -56z m-2505 -67 c9 -11
-1 -26 -51 -74 -35 -33 -73 -69 -84 -79 -12 -10 -302 -277 -645 -594 -343
-316 -644 -593 -669 -614 -85 -73 106 112 565 546 253 238 552 523 665 631
113 108 206 197 206 197 1 1 7 -5 13 -13z m1274 -611 c4 -9 -31 -48 -102 -112
-152 -139 -740 -682 -901 -833 -161 -150 -383 -353 -426 -389 -52 -44 119 122
396 384 145 138 433 411 639 607 207 197 379 358 382 358 4 0 9 -7 12 -15z
m-5303 -159 c0 -2 -8 -10 -17 -17 -16 -13 -17 -12 -4 4 13 16 21 21 21 13z"/>
</g>
</svg>
