<svg height='300px' width='300px'  fill="#000000" xmlns="http://www.w3.org/2000/svg" xmlns:xlink="http://www.w3.org/1999/xlink" version="1.1" x="0px" y="0px" viewBox="0 0 100 100" enableBackground="new 0 0 100 100" xml:space="preserve"><g><circle fill="#000000" cx="74.231" cy="78.281" r="6.519"></circle><path fill="#000000" d="M34.538,28.218c0,0-3.239,0.753-4.234,1.266c-1.004,0.403-6.381,5.225-8.526,7.974   c-0.77,3.146-2.191,10.568-2.506,13.642c-0.244,1.962,1.695,2.435,2.225,2.48c0.165,0.013,2.473,0.103,2.752-2.097   c0.28-2.199,2.095-11.3,2.095-11.3l7.479-4.649c0,0-0.66,1.814-2.198,2.971c-1.541,1.154,8.854,20.515,8.854,20.515   s10.007,12.637,10.121,12.803c0.113,0.165,8.291,13.442,8.291,13.442s1.375,2.03,4.068,0.424c2.029-1.26,0.371-4.096,0.371-4.096   l-6.5-12.506l-7.825-13.202c0,0-0.44-18.369-3.63-27.666C45.373,28.218,41.192,32.454,34.538,28.218z"></path><path fill="#000000" d="M32.09,78.281c0,0-3.936-3.946-0.585-6.243l10.444-6.71l4.248,5.487L32.09,78.281z"></path><path fill="#000000" d="M51.709,54.44l0.141,2.823l4.537,7.158C56.387,64.422,58.953,63.516,51.709,54.44z"></path><path fill="#000000" d="M48.251,29.813c0,0,1.412,2.639,1.66,8.581l3.958,3.011l7.266,1.283c0,0,2.312-0.144,2.504-2.505   c0.166-2.034-2.021-2.344-2.504-2.505c-0.162-0.055-5.189-1.1-5.189-1.1L48.251,29.813z"></path><path fill="#000000" d="M40.103,13.694c-0.862,0-4.924,0.441-4.924,4.922c0,4.481,1.931,8.761,4.923,8.761s4.922-4.676,4.922-8.761   S41.254,13.694,40.103,13.694z"></path></g></svg>
